# xmcd
#
# Track frame offsets:
#	150
#	15493
#	31644
#	49039
#	63522
#	76194
#	90970
#	105776
#	122516
#	134484
#	151670
#	163201
#	178868
#	195743
#	208356
#	225456
#
# Disc length: 3180 seconds
# Revision: 2
# Processed by: cddbd v1.5.2PL0 Copyright (c) Steve Scherf et al.
# Submitted via: dBpowerAMP V12.0
#
DISCID=be0c6a10
DTITLE=Johnny Greenwood - This Land of Ours Australia
DYEAR=1900
DGENRE=Country
TTITLE0=ThisLand's a Part of You and a Part of Me
TTITLE1=Beautiful Queensland
TTITLE2=Tibrogargan
TTITLE3=Wilmott Lagoon
TTITLE4=When The Rain Tumbles Down in July
TTITLE5=Currabubula
TTITLE6=The Road Up Ahead
TTITLE7=I Am Australian
TTITLE8=Advance Australia Fair
TTITLE9=Our Old Flag
TTITLE10=The Lights of Cobb and Co
TTITLE11=Coonabarabran
TTITLE12=Australia's Own Don Bradman
TTITLE13=A Pub With No Beer
TTITLE14=The Ghosts of Combo Waterhole
TTITLE15=Waltzing Matilda
EXTD=
EXTT0=
EXTT1=
EXTT2=
EXTT3=
EXTT4=
EXTT5=
EXTT6=
EXTT7=
EXTT8=
EXTT9=
EXTT10=
EXTT11=
EXTT12=
EXTT13=
EXTT14=
EXTT15=
PLAYORDER=
